<svg width="393" height="138" viewBox="0 0 393 138" fill="none" xmlns="http://www.w3.org/2000/svg">
<path d="M81 98V47.12H61.32V42H106.6V47.12H86.92V98H81ZM104.285 98L129.885 42H135.725L161.325 98H155.085L131.565 45.44H133.965L110.445 98H104.285ZM114.365 83.04L116.125 78.24H148.685L150.445 83.04H114.365ZM170.589 98V42H176.509V92.88H207.869V98H170.589ZM222.978 67.04H252.578V72.08H222.978V67.04ZM223.618 92.88H257.298V98H217.698V42H256.098V47.12H223.618V92.88ZM276.494 67.04H306.094V72.08H276.494V67.04ZM277.134 92.88H310.814V98H271.214V42H309.614V47.12H277.134V92.88ZM324.729 98V42H329.609L355.209 85.68H352.649L378.009 42H382.889V98H377.209V50.88H378.569L355.209 90.88H352.409L328.889 50.88H330.409V98H324.729Z" fill="black"/>
<path d="M44.3491 93.5L29.5 132.393L14.6509 93.5L44.3491 93.5Z" stroke="black" stroke-width="4"/>
<line x1="22" y1="115" x2="36" y2="115" stroke="black" stroke-width="2"/>
<path d="M0.28 3.08C2.33333 2.52 4.34667 2.04 6.32 1.64C8.26667 1.24 10.0133 0.933331 11.56 0.719998C13.1067 0.506665 14.2533 0.399998 15 0.399998C16.9733 0.399998 18.7733 0.719999 20.4 1.36C22.0267 2 23.4533 2.82667 24.68 3.84C25.9333 4.85333 26.9867 5.94667 27.84 7.12C28.72 8.29333 29.3733 9.42667 29.8 10.52C30.2533 11.64 30.48 12.5867 30.48 13.36C30.48 14.0267 30.3333 14.6133 30.04 15.12C29.7467 15.6267 29.1733 16.12 28.32 16.6C27.4667 17.08 26.2133 17.5867 24.56 18.12C23.04 18.6267 21.88 19.1067 21.08 19.56C20.3067 20.0133 19.7733 20.5067 19.48 21.04C19.2133 21.5733 19.08 22.1867 19.08 22.88C19.08 23.44 18.92 23.84 18.6 24.08C18.3067 24.3467 17.9467 24.48 17.52 24.48C17.0933 24.48 16.6933 24.2933 16.32 23.92C15.9733 23.5467 15.8 23.0667 15.8 22.48C15.8 21.44 15.9867 20.5467 16.36 19.8C16.7333 19.08 17.24 18.4533 17.88 17.92L18.64 18.84C17.8667 18.52 17.2267 18.1067 16.72 17.6C16.24 17.12 15.88 16.5733 15.64 15.96C15.4 15.3733 15.28 14.7467 15.28 14.08C15.28 13.3067 15.4267 12.5067 15.72 11.68C15.9867 10.8533 16.3867 10.04 16.92 9.24C17.48 8.44 18.16 7.68 18.96 6.96C19.76 6.26667 20.6667 5.65333 21.68 5.12L21.6 5.52C20.56 4.77333 19.4267 4.28 18.2 4.04C17 3.8 15.9333 3.68 15 3.68C14.2533 3.68 13.3067 3.76 12.16 3.92C10.9867 4.08 9.74667 4.28 8.44 4.52C7.13333 4.78666 5.84 5.06666 4.56 5.36C3.25333 5.68 2.08 5.97333 1.04 6.24L0.28 3.08ZM18.56 14.4C18.56 14.88 18.6533 15.2667 18.84 15.56C19.0267 15.88 19.3067 16.0933 19.68 16.2C20.0533 16.3067 20.52 16.2667 21.08 16.08C22.04 15.76 22.88 15.4667 23.6 15.2C24.3467 14.9333 24.96 14.6667 25.44 14.4C25.9467 14.16 26.32 13.9067 26.56 13.64C26.8 13.3733 26.92 13.0933 26.92 12.8C26.92 12.5067 26.8533 12.1333 26.72 11.68C26.5867 11.2533 26.3867 10.7867 26.12 10.28C25.8533 9.8 25.52 9.30667 25.12 8.8C24.72 8.29333 24.2533 7.81333 23.72 7.36L24.04 7.4C22.8133 7.98667 21.7867 8.69333 20.96 9.52C20.1333 10.3733 19.52 11.2267 19.12 12.08C18.7467 12.96 18.56 13.7333 18.56 14.4ZM15.8 22.4609L19.08 22.8609C19.08 24.1943 19.1733 25.2343 19.36 25.9809C19.5733 26.7276 19.96 27.2876 20.52 27.6609C21.1067 28.0609 21.9467 28.3809 23.04 28.6209C24.1333 28.8609 25.56 29.1543 27.32 29.5009L26.72 32.6209C26.24 32.5143 25.7067 32.3943 25.12 32.2609C24.5333 32.1276 23.9467 32.0076 23.36 31.9009C22.8 31.8209 22.3067 31.7809 21.88 31.7809C21.48 31.7809 21.1067 31.8076 20.76 31.8609C20.4133 31.9143 20.12 32.1143 19.88 32.4609C19.64 32.8076 19.44 33.3943 19.28 34.2209C19.1467 35.0476 19.08 36.2343 19.08 37.7809C19.08 38.3409 18.92 38.7409 18.6 38.9809C18.3067 39.2476 17.9467 39.3809 17.52 39.3809C17.0933 39.3809 16.6933 39.1943 16.32 38.8209C15.9733 38.4476 15.8 37.9676 15.8 37.3809C15.8 35.7543 15.88 34.4609 16.04 33.5009C16.2267 32.5409 16.4933 31.8076 16.84 31.3009C17.1867 30.8209 17.6133 30.4743 18.12 30.2609C18.6533 30.0743 19.2667 29.9276 19.96 29.8209L19.88 31.0209C19.0267 30.5943 18.3333 30.1276 17.8 29.6209C17.2667 29.1409 16.8533 28.5809 16.56 27.9409C16.2667 27.3009 16.0667 26.5276 15.96 25.6209C15.8533 24.7409 15.8 23.6876 15.8 22.4609ZM8.24 32.5409C8.24 31.9809 8.44 31.5009 8.84 31.1009C9.21333 30.7276 9.66667 30.5409 10.2 30.5409C10.7333 30.5409 11.2 30.7276 11.6 31.1009C12 31.5009 12.2 31.9809 12.2 32.5409C12.2 33.0743 12 33.5276 11.6 33.9009C11.2 34.3009 10.7333 34.5009 10.2 34.5009C9.66666 34.5009 9.21333 34.3009 8.84 33.9009C8.44 33.5276 8.24 33.0743 8.24 32.5409ZM8.24 27.0609C8.24 26.5009 8.44 26.0209 8.84 25.6209C9.21333 25.2476 9.66667 25.0609 10.2 25.0609C10.7333 25.0609 11.2 25.2476 11.6 25.6209C12 26.0209 12.2 26.5009 12.2 27.0609C12.2 27.5943 12 28.0476 11.6 28.4209C11.2 28.8209 10.7333 29.0209 10.2 29.0209C9.66667 29.0209 9.21333 28.8209 8.84 28.4209C8.44 28.0476 8.24 27.5943 8.24 27.0609ZM15.8 37.3828L19.08 37.7428C19.08 39.2628 19.2267 40.3295 19.52 40.9428C19.8133 41.5561 20.3333 41.9028 21.08 41.9828C21.8267 42.0895 22.8667 42.1161 24.2 42.0628L44.56 41.3828L44.56 44.7028L24.28 45.3428C22.92 45.3961 21.8533 45.6095 21.08 45.9828C20.3333 46.3828 19.8133 46.9161 19.52 47.5828C19.2267 48.2495 19.08 48.9828 19.08 49.7828C19.08 50.3428 18.92 50.7428 18.6 50.9828C18.3067 51.2495 17.9467 51.3828 17.52 51.3828C17.0933 51.3828 16.6933 51.1961 16.32 50.8228C15.9733 50.4495 15.8 49.9695 15.8 49.3828C15.8 48.2628 15.9733 47.3295 16.32 46.5828C16.6933 45.8628 17.16 45.2895 17.72 44.8628C18.3067 44.4628 18.92 44.1961 19.56 44.0628L19.48 44.9028C18.68 44.6361 18 44.1961 17.44 43.5828C16.9067 42.9961 16.4933 42.1961 16.2 41.1828C15.9333 40.1695 15.8 38.9028 15.8 37.3828ZM15.8 49.375L19.08 49.775C19.08 51.375 19.2267 52.8817 19.52 54.295C19.84 55.7083 20.2533 57.0017 20.76 58.175C21.2933 59.375 21.8933 60.4017 22.56 61.255C23.2533 62.1083 23.96 62.7617 24.68 63.215C25.4267 63.695 26.16 63.935 26.88 63.935C27.2267 63.935 27.5733 63.815 27.92 63.575C28.2933 63.335 28.6 62.9217 28.84 62.335C29.08 61.775 29.2 61.015 29.2 60.055C29.2 59.4683 29.12 58.815 28.96 58.095C28.8 57.375 28.5733 56.6817 28.28 56.015C28.0133 55.375 27.7067 54.8417 27.36 54.415C26.7733 55.135 26.2 55.8017 25.64 56.415C25.08 57.055 24.4667 57.7083 23.8 58.375C23.16 59.0417 22.4267 59.7617 21.6 60.535C21.1467 61.1483 20.76 61.8283 20.44 62.575C20.12 63.3483 19.8533 64.175 19.64 65.055C19.4533 65.9617 19.3067 66.8817 19.2 67.815C19.12 68.7483 19.08 69.6817 19.08 70.615C19.08 71.175 18.92 71.575 18.6 71.815C18.3067 72.0817 17.9467 72.215 17.52 72.215C17.0933 72.215 16.6933 72.0283 16.32 71.655C15.9733 71.2817 15.8 70.8017 15.8 70.215C15.8 68.7483 15.9333 67.2417 16.2 65.695C16.4933 64.175 16.92 62.7483 17.48 61.415C18.0667 60.0817 18.8 58.9483 19.68 58.015C20.2667 57.5617 20.8533 57.055 21.44 56.495C22.0267 55.935 22.6133 55.3217 23.2 54.655C23.8133 54.015 24.3867 53.3217 24.92 52.575C25.0533 52.415 25.2933 52.255 25.64 52.095C25.9867 51.935 26.3467 51.8017 26.72 51.695C27.0933 51.5883 27.3733 51.535 27.56 51.535C27.96 51.535 28.44 51.7883 29 52.295C29.56 52.8017 30.0933 53.4817 30.6 54.335C31.1333 55.1883 31.5733 56.1617 31.92 57.255C32.2667 58.3483 32.44 59.4817 32.44 60.655C32.44 62.175 32.2133 63.4017 31.76 64.335C31.3067 65.295 30.72 65.9883 30 66.415C29.3067 66.8683 28.56 67.095 27.76 67.095C26.5867 67.095 25.4133 66.8017 24.24 66.215C23.0933 65.6283 22.0133 64.7883 21 63.695C19.9867 62.6017 19.08 61.3217 18.28 59.855C17.5067 58.3883 16.8933 56.7617 16.44 54.975C16.0133 53.215 15.8 51.3483 15.8 49.375ZM15.8 70.2344L19.08 70.6344C19.08 72.2077 19.1333 73.4344 19.24 74.3144C19.3733 75.1944 19.68 75.821 20.16 76.1944C20.6667 76.5677 21.4533 76.7544 22.52 76.7544C23.1867 76.7544 23.9733 76.6477 24.88 76.4344C25.8133 76.221 26.8 75.941 27.84 75.5944C28.88 75.2477 29.9067 74.8744 30.92 74.4744L32.12 77.7144C31.2667 78.061 30.2933 78.381 29.2 78.6744C28.1067 78.9944 27.0267 79.261 25.96 79.4744C24.8933 79.6877 23.96 79.7944 23.16 79.7944C21.8267 79.7944 20.6933 79.6077 19.76 79.2344C18.8267 78.8877 18.0667 78.3277 17.48 77.5544C16.8933 76.781 16.4667 75.781 16.2 74.5544C15.9333 73.3544 15.8 71.9144 15.8 70.2344ZM36.28 78.9544C36.28 78.3944 36.4667 77.9144 36.84 77.5144C37.24 77.141 37.7067 76.9544 38.24 76.9544C38.7733 76.9544 39.24 77.141 39.64 77.5144C40.04 77.9144 40.24 78.3944 40.24 78.9544C40.24 79.4877 40.04 79.941 39.64 80.3144C39.24 80.7144 38.7733 80.9144 38.24 80.9144C37.7067 80.9144 37.24 80.7144 36.84 80.3144C36.4667 79.941 36.28 79.4877 36.28 78.9544ZM36.28 73.4744C36.28 72.9144 36.4667 72.4344 36.84 72.0344C37.24 71.661 37.7067 71.4744 38.24 71.4744C38.7733 71.4744 39.24 71.661 39.64 72.0344C40.04 72.4344 40.24 72.9144 40.24 73.4744C40.24 74.0077 40.04 74.461 39.64 74.8344C39.24 75.2344 38.7733 75.4344 38.24 75.4344C37.7067 75.4344 37.24 75.2344 36.84 74.8344C36.4667 74.461 36.28 74.0077 36.28 73.4744Z" fill="black"/>
</svg>
